<svg width="5416" height="5041" xmlns="http://www.w3.org/2000/svg" class="iconAboveSlogan">
 <!---->

 <!---->
 <!---->
 <!---->
 <!---->
 <g>
  <title>background</title>
  <rect fill="none" id="canvas_background" height="5043" width="5418" y="-1" x="-1"/>
 </g>
 <g>
  <title>Layer 1</title>
  <g fill="#D1A103" transform="matrix(3.5962236571466764,0,0,3.8213890185564394,-1612.2215519255844,-1941.4713281959484) " id="0d5121c9-9ab0-456b-854c-f90a1711834a">
   <path id="svg_2" d="m1309.75934,997.64326c-36.8,-64.1 -73.4,-128.2 -110.9,-191.8c-3,-5 -12.3,-8.7 -18.7,-8.9c-34,-0.7 -68.1,-0.7 -102.1,-0.3c-9,-16.5 -26.6,-27.7 -46.7,-27.7c-29.3,0 -53.1,23.8 -53.1,53.1s23.8,53.1 53.1,53.1c19.9,0 37.3,-11 46.4,-27.3c24.2,0 47.8,0 71.4,0.3c6.4,0.1 15.6,1.2 18.6,5.4c9.9,13.8 17.5,29.2 27.9,47.2l-25.2,0c-55.8,0 -111.6,-0.2 -167.4,0.3c-7.1,0.1 -17.3,0.9 -20.7,5.4c-9.7,13.1 -16.6,28.2 -26.4,45.8l24,0c68.4,0 136.8,1.6 205.1,-0.8c30.2,-1 50.2,6 61.3,35.3c2.6,6.9 11.2,14.9 18.2,16.1c14.7,2.5 30.1,0.8 45.1,0.8c0.1,-3.4 0.7,-5.1 0.1,-6zm-259.2,-149.9c-5.4,4 -12.1,6.4 -19.3,6.4c-17.8,0 -32.2,-14.5 -32.2,-32.2c0,-17.8 14.5,-32.2 32.2,-32.2c8.1,0 15.5,3 21.1,7.9c6.8,5.9 11.1,14.6 11.1,24.3c0.1,10.5 -5,19.9 -12.9,25.8zm335.2,-10.4zm7.8,638.9c-0.5,0.9 -1,1.7 -1.6,2.6c-1.6,-1.1 -3.4,-2 -5.2,-2.8c2.3,0.1 4.5,0.1 6.8,0.2zm-261,-17.8c-31.6,-60.6 -61.9,-122 -95.6,-181.5c-14.9,-26.3 -17.9,-47.3 2.9,-70.6c4.9,-5.5 8,-16.9 5.8,-23.5c-4.6,-14.2 -13.2,-27 -20.2,-40.3c-2.9,1.3 -4.6,1.6 -5.2,2.5c-39.8,62.2 -79.7,124.4 -118.7,187.1c-3.1,5 -2.1,15 0.8,20.7c15.1,30.4 30.8,60.5 46.8,90.5c-6.3,8.7 -10,19.4 -10,31c0,29.3 23.8,53.1 53.1,53.1s53.1,-23.8 53.1,-53.1c0,-28.2 -22.1,-51.4 -50,-53c-11.4,-21.9 -22.5,-43.2 -33.4,-64.7c-2.9,-5.7 -6.1,-14.4 -3.8,-19c7.6,-15.1 17.8,-29 28.9,-46.5c5.3,10.2 8.5,16.2 11.7,22.3c25.8,49.5 51.5,99 77.7,148.3c3.3,6.3 8.8,15 14.3,15.8c16.1,2.5 32.7,1.7 52.8,2.2c-4.7,-9.3 -7.8,-15.3 -11,-21.3zm-123.9,-12s0.1,0 0,0c9.5,5.6 15.9,16 15.9,27.8c0,17.8 -14.5,32.2 -32.2,32.2s-32.2,-14.5 -32.2,-32.2c0,-3.3 0.5,-6.4 1.4,-9.4c4,-13.2 16.3,-22.8 30.8,-22.8c6,0 11.6,1.6 16.3,4.4zm573,-312.3c-29.3,0 -53.1,23.8 -53.1,53.1c0,11.3 3.5,21.8 9.6,30.4c-10.4,17.2 -20.7,34 -31.1,50.7c-3.4,5.4 -9.2,12.7 -14.3,13.1c-16.9,1.3 -34,-0.2 -54.8,-0.6c5.9,-9.8 9.5,-15.7 13.1,-21.5c28.9,-47.7 58,-95.4 86.6,-143.3c3.6,-6.1 8.2,-15.3 6.1,-20.5c-6.2,-15.1 -15.5,-28.8 -25.5,-46.3c-5.5,9 -9,14.8 -12.4,20.5c-35.4,58.5 -72.3,116.2 -105.7,175.8c-14.7,26.3 -31.1,39.8 -61.9,34.1c-7.3,-1.3 -18.6,1.9 -23.2,7.2c-9.7,11.3 -16.2,25.3 -24,38.2c2.6,1.8 3.7,3.2 4.8,3.2c73.8,1.8 147.7,3.7 221.5,4.6c5.8,0.1 13.9,-6 17.3,-11.4c17,-26.7 33.4,-53.8 49.6,-81c28,-1.4 50.4,-24.6 50.4,-53c0.1,-29.5 -23.7,-53.3 -53,-53.3zm17.7,80c-5.1,3.4 -11.1,5.3 -17.7,5.3c-14.5,0 -26.7,-9.6 -30.8,-22.7c-0.9,-3 -1.4,-6.2 -1.4,-9.5c0,-15.7 11.3,-28.9 26.3,-31.7c0.2,-0.3 0.4,-0.7 0.7,-1.1c0.2,0.3 0.3,0.6 0.5,0.9c1.6,-0.2 3.2,-0.4 4.8,-0.4c17.8,0 32.2,14.5 32.2,32.2c-0.1,11.4 -5.9,21.3 -14.6,27z"/>
   <path id="svg_3" d="m1386.75934,1476.04326c1.8,0.8 3.6,1.7 5.2,2.8c0.5,-0.8 1,-1.7 1.6,-2.6c-2.3,-0.1 -4.5,-0.1 -6.8,-0.2z"/>
   <path id="svg_4" d="m1432.85934,1373.14326c-68.3,-2.2 -136.7,-6 -205,-5.8c-30.2,0.1 -50,-7.6 -60.1,-37.2c-2.4,-7 -10.8,-15.3 -17.7,-16.6c-14.6,-2.9 -30,-1.7 -45.1,-2.2c-0.3,3.2 -0.9,4.8 -0.4,5.8c34.7,65.2 69.3,130.5 104.7,195.3c2.8,5.1 12,9.1 18.4,9.5c32.4,1.7 64.8,2.7 97.2,3.5c7.8,19.6 27,33.6 49.4,33.6c29.3,0 53.1,-23.8 53.1,-53.1s-23.8,-53.1 -53.1,-53.1c-17.5,0 -33.1,8.5 -42.7,21.6c-24.2,-0.8 -47.8,-1.6 -71.3,-2.6c-6.4,-0.3 -15.6,-1.7 -18.4,-6c-9.4,-14.1 -16.6,-29.7 -26.3,-48.1c11.5,0.4 18.3,0.6 25.2,0.8c55.8,1.8 111.6,3.7 167.4,5.1c7.1,0.2 17.4,-0.3 20.8,-4.7c10.1,-12.8 17.5,-27.7 27.9,-44.9c-10.5,-0.4 -17.3,-0.6 -24,-0.9zm-68.9,102.2c3.3,-1.1 6.8,-1.8 10.5,-1.8c4.4,0 8.5,0.9 12.4,2.5c2.3,0.1 4.5,0.1 6.8,0.2c-0.5,0.9 -1,1.7 -1.6,2.6c8.8,5.8 14.6,15.7 14.6,27c0,17.8 -14.5,32.2 -32.2,32.2c-10.2,0 -19.3,-4.8 -25.2,-12.2c-4.4,-5.5 -7,-12.4 -7,-20c-0.1,-14.2 9,-26.2 21.7,-30.5zm-234.9,-488.2c-73.7,-4.1 -147.5,-8.4 -221.3,-11.6c-5.8,-0.3 -14,5.5 -17.7,10.9c-19.3,28.4 -38,57.2 -56.4,86.1c-2.2,-0.3 -4.5,-0.4 -6.8,-0.4c-29.3,0 -53.1,23.8 -53.1,53.1s23.8,53.1 53.1,53.1s53.1,-23.8 53.1,-53.1c0,-8 -1.8,-15.6 -5,-22.4c13.9,-21.3 27.4,-42 41,-62.5c3.5,-5.3 9.6,-12.4 14.7,-12.7c16.9,-0.8 34,1.2 54.7,2.4c-6.3,9.6 -10,15.4 -13.7,21.1c-30.4,46.8 -61,93.5 -91.1,140.5c-3.8,6 -8.7,15 -6.8,20.3c5.7,15.3 14.6,29.3 24,47.1c5.7,-8.8 9.4,-14.5 13.1,-20.1c37.3,-57.3 76,-113.8 111.2,-172.3c15.6,-25.9 32.4,-38.8 63,-32.1c7.2,1.6 18.6,-1.3 23.4,-6.5c10.1,-11 17,-24.8 25.2,-37.4c-2.5,-2.1 -3.5,-3.4 -4.6,-3.5zm-270,140.2c-1.1,16.7 -15.1,30 -32.1,30c-17.8,0 -32.2,-14.5 -32.2,-32.2c0,-15.8 11.5,-29 26.6,-31.7c1.8,-0.3 3.7,-0.5 5.6,-0.5c17.8,0 32.2,14.5 32.2,32.2c-0.1,0.7 -0.1,1.5 -0.1,2.2zm651.6,-171.9c-15.7,-29.3 -32.1,-58.3 -48.7,-87.2c5.7,-8.5 9.1,-18.7 9.1,-29.7c0,-29.3 -23.8,-53.1 -53.1,-53.1s-53.1,23.8 -53.1,53.1c0,28.7 23,52.2 51.5,53.1c11.8,21 23.3,41.4 34.5,61.9c3.1,5.6 6.6,14.2 4.4,18.9c-7.1,15.4 -16.8,29.6 -27.4,47.4c-5.6,-10 -9,-16 -12.4,-21.9c-27.4,-48.6 -54.6,-97.3 -82.4,-145.8c-3.5,-6.2 -9.3,-14.7 -14.8,-15.4c-16.2,-2 -32.8,-0.6 -52.9,-0.5c5.2,9.2 8.5,15 11.8,20.9c33.6,59.6 65.7,120 101.3,178.3c15.7,25.8 19.4,46.7 -0.7,70.7c-4.7,5.7 -7.5,17.1 -5.1,23.7c5.1,14 14.1,26.6 21.5,39.7c2.9,-1.4 4.6,-1.7 5.1,-2.7c37.8,-63.5 75.7,-126.9 112.7,-190.8c3.1,-4.9 1.8,-14.9 -1.3,-20.6zm-61.5,-108.6c-3.6,13.8 -16.2,24 -31.2,24c-5.6,0 -11,-1.5 -15.6,-4c-9.9,-5.5 -16.6,-16.1 -16.6,-28.2l0,-1.2c0.7,-17.2 14.9,-31 32.2,-31c17.8,0 32.2,14.5 32.2,32.2c0.1,2.8 -0.3,5.5 -1,8.2z"/>
  </g>
 </g>
</svg>